<svg width="97" height="40" viewBox="0 0 97 40" fill="none" xmlns="http://www.w3.org/2000/svg">
<path d="M80.8652 12.3008C82.4819 12.3008 83.5866 13.9339 82.9854 15.4346L75.1885 34.8945C74.4968 36.6144 73.6591 37.8447 72.6035 38.6436C71.5459 39.4437 70.2823 39.8017 68.7578 39.8018C68.1333 39.8018 67.5441 39.7661 66.9863 39.6982C65.9443 39.5715 65.2482 38.6383 65.248 37.6104C65.248 36.3587 66.263 35.3438 67.5146 35.3438H68.0898C68.9734 35.3437 69.6663 35.2417 70.2324 34.8906C70.7961 34.5411 71.2547 33.9314 71.6387 32.8711L71.6396 32.8691L72.1406 31.5439L65.9365 15.4873C65.3435 13.9526 66.4759 12.3011 68.1211 12.3008C69.1142 12.3008 69.9995 12.9268 70.3301 13.8633L74.4004 25.4023L78.7246 13.7881C79.0575 12.8938 79.911 12.3008 80.8652 12.3008ZM41.4531 12.3008C42.7764 12.3008 43.8495 13.3731 43.8496 14.6963V28.5244C43.8496 29.8339 42.788 30.8962 41.4785 30.8965C40.2928 30.8965 39.2893 30.0204 39.1289 28.8457L39.1045 28.6699C37.8969 30.3006 35.6043 31.3789 33.2529 31.3789C31.1065 31.3789 29.3893 30.6524 28.21 29.3447C27.0324 28.0389 26.4044 26.1677 26.4043 23.8994V14.6963C26.4044 13.3731 27.4766 12.3009 28.7998 12.3008C30.123 12.3008 31.1962 13.3731 31.1963 14.6963V22.3037C31.1963 24.0341 31.5373 25.2217 32.167 25.9756C32.7925 26.7244 33.7232 27.0693 34.96 27.0693C36.3619 27.0693 37.3761 26.6605 38.0439 25.8467C38.7162 25.0275 39.0576 23.7742 39.0576 22.0439V14.6963C39.0577 13.3732 40.13 12.3009 41.4531 12.3008ZM20.1475 3.50586C21.5321 3.50605 22.6543 4.62901 22.6543 6.01367V28.3887C22.6543 29.7733 21.5321 30.8963 20.1475 30.8965C18.7627 30.8965 17.6396 29.7734 17.6396 28.3887V19.3936H5.88184V28.3887C5.88184 29.7734 4.7597 30.8964 3.375 30.8965C1.99022 30.8965 0.867188 29.7734 0.867188 28.3887V6.01367C0.867188 4.6289 1.99022 3.50586 3.375 3.50586C4.7597 3.50595 5.88184 4.62895 5.88184 6.01367V14.7119H17.6396V6.01367C17.6396 4.6289 18.7627 3.50586 20.1475 3.50586ZM59.7705 3.02344C61.0836 3.02344 62.1484 4.08832 62.1484 5.40137V28.5186C62.1484 29.8316 61.0836 30.8965 59.7705 30.8965C58.4575 30.8964 57.3936 29.8315 57.3936 28.5186V16.3506H53.6455V28.5C53.6455 29.8232 52.5732 30.8964 51.25 30.8965C49.9267 30.8965 48.8535 29.8233 48.8535 28.5V16.3506H47.3535C46.2352 16.3505 45.3291 15.4435 45.3291 14.3252C45.3292 13.207 46.2353 12.3008 47.3535 12.3008H48.8535V8.98242C48.8535 7.65913 49.9267 6.58594 51.25 6.58594C52.5732 6.58601 53.6455 7.65917 53.6455 8.98242V12.3008H57.3936V5.40137C57.3936 4.08837 58.4575 3.02353 59.7705 3.02344Z" fill="white" stroke="white" stroke-width="0.265049"/>
<path d="M90.6001 13.0831C86.9157 13.0831 84.1367 10.3042 84.1367 6.68217C84.1367 3.06019 86.9469 0.28125 90.6001 0.28125C94.2533 0.28125 97.001 3.02897 97.001 6.68217C97.001 10.3354 94.2533 13.0831 90.6001 13.0831ZM90.6001 12.0215C93.6288 12.0215 95.8769 9.74213 95.8769 6.68217C95.8769 3.62222 93.6288 1.34287 90.6001 1.34287C87.5401 1.34287 85.292 3.62222 85.292 6.68217C85.292 9.74213 87.5401 12.0215 90.6001 12.0215ZM89.2262 9.60162C89.2262 9.92064 88.9676 10.1793 88.6486 10.1793C88.3296 10.1793 88.0709 9.92064 88.0709 9.60162V3.55017C88.0709 3.24507 88.3183 2.99774 88.6234 2.99774H90.8811C92.4423 2.99774 93.5039 3.80956 93.5039 5.18342C93.5039 6.12014 92.9731 6.90074 92.0052 7.24421L93.1487 9.35195C93.3512 9.72521 93.081 10.1793 92.6564 10.1793C92.448 10.1793 92.2568 10.0636 92.1601 9.87901L90.9436 7.55645H89.2262V9.60162ZM92.255 5.24587C92.255 4.46527 91.7242 4.09058 90.8499 4.09058H89.2262V6.46361H90.8499C91.7242 6.46361 92.255 6.02647 92.255 5.24587Z" fill="white"/>
</svg>
