<svg width="16" height="16" viewBox="0 0 16 16" fill="none" xmlns="http://www.w3.org/2000/svg">
<path fillRule="evenodd" clipRule="evenodd" d="M8.78502 0.85999C8.28914 0.624795 7.71387 0.624795 7.21799 0.859989C6.8747 1.02281 6.63118 1.33101 6.41541 1.67934C6.19847 2.02957 5.96045 2.50562 5.66405 3.09844L5.66404 3.09846L5.65243 3.12168L5.41354 3.59947C5.21029 4.00597 5.15118 4.1125 5.07698 4.19017C5.00044 4.27028 4.90866 4.33428 4.80703 4.37841C4.7085 4.42118 4.58811 4.43982 4.13641 4.49001L3.91954 4.51411L3.89352 4.517H3.89351C3.18145 4.59611 2.61262 4.65931 2.18197 4.74691C1.75725 4.8333 1.36142 4.96118 1.08434 5.24388C0.687908 5.64835 0.501275 6.2137 0.578988 6.7747C0.633303 7.16678 0.875191 7.50522 1.16501 7.82751C1.45887 8.15424 1.87827 8.54375 2.40329 9.03126L2.42247 9.04908L2.65142 9.26165C3.04912 9.63094 3.15109 9.7354 3.20822 9.84664C3.2672 9.96154 3.29862 10.0885 3.29997 10.2177C3.30129 10.3425 3.25893 10.485 3.0768 11.0041L3.0682 11.0287L3.06818 11.0287C2.79941 11.7947 2.58655 12.4014 2.4657 12.8733C2.3483 13.3318 2.28252 13.782 2.43558 14.1718C2.65095 14.7204 3.11755 15.1316 3.68888 15.2762C4.09375 15.3787 4.52824 15.2593 4.96436 15.0873C5.41207 14.9107 5.97899 14.6272 6.69378 14.2698L6.71719 14.2581L7.27298 13.9802C7.64771 13.7928 7.75004 13.7467 7.84825 13.7283C7.94951 13.7093 8.0535 13.7093 8.15477 13.7283C8.25297 13.7467 8.3553 13.7928 8.73004 13.9802L9.28583 14.2581L9.3093 14.2698C10.0241 14.6272 10.591 14.9107 11.0386 15.0873C11.4747 15.2593 11.9093 15.3787 12.3141 15.2762C12.8855 15.1316 13.3521 14.7204 13.5674 14.1718C13.7205 13.782 13.6547 13.3318 13.5373 12.8733C13.4164 12.4014 13.2036 11.7947 12.9348 11.0287V11.0286L12.9262 11.0041C12.7441 10.485 12.7017 10.3425 12.703 10.2177C12.7044 10.0885 12.7358 9.96154 12.7948 9.84664C12.8519 9.7354 12.9539 9.63094 13.3516 9.26165L13.5805 9.04908L13.5998 9.03119C14.1248 8.54368 14.5442 8.15424 14.838 7.82751C15.1278 7.50522 15.3697 7.16678 15.424 6.7747C15.5018 6.2137 15.3151 5.64835 14.9187 5.24388C14.6416 4.96118 14.2458 4.8333 13.821 4.74691C13.3904 4.65931 12.8216 4.59611 12.1095 4.517L12.0835 4.51411L11.8666 4.49001C11.4149 4.43982 11.2945 4.42118 11.196 4.37841C11.0944 4.33428 11.0026 4.27028 10.9261 4.19017C10.8519 4.1125 10.7928 4.00597 10.5895 3.59946L10.3506 3.12168L10.339 3.09845C10.0425 2.50562 9.80458 2.02957 9.58762 1.67934C9.37186 1.33101 9.12838 1.02281 8.78502 0.85999Z" fill="#FFC250"/>
</svg>
